<svg width="24" height="24" viewBox="0 0 24 24" fill="none" xmlns="http://www.w3.org/2000/svg">
<path fill-rule="evenodd" clip-rule="evenodd" d="M22.6006 12.6014L14.601 20.601C14.2691 20.933 13.7309 20.933 13.399 20.601C13.067 20.2691 13.067 19.7309 13.399 19.399L19.9479 12.85H2C1.53056 12.85 1.15 12.4694 1.15 12C1.15 11.5306 1.53056 11.15 2 11.15H19.9479L13.399 4.60103C13.067 4.26909 13.067 3.7309 13.399 3.39895C13.7309 3.06701 14.2691 3.06701 14.601 3.39895L22.6005 11.3984L22.6009 11.3988L22.601 11.399C22.6825 11.4804 22.744 11.5744 22.7855 11.6746C22.8271 11.7748 22.85 11.8847 22.85 12C22.85 12.1152 22.8271 12.2251 22.7855 12.3254C22.7443 12.4249 22.6834 12.5182 22.6028 12.5992" fill="black"/>
</svg>
