<svg width="24" height="24" viewBox="0 0 24 24" fill="none" xmlns="http://www.w3.org/2000/svg">
<path fill-rule="evenodd" clip-rule="evenodd" d="M1.39935 12.6014L9.39896 20.601C9.7309 20.933 10.2691 20.933 10.601 20.601C10.933 20.2691 10.933 19.7309 10.601 19.399L4.05208 12.85H22C22.4694 12.85 22.85 12.4694 22.85 12C22.85 11.5306 22.4694 11.15 22 11.15H4.05208L10.601 4.60103C10.933 4.26909 10.933 3.7309 10.601 3.39895C10.2691 3.06701 9.7309 3.06701 9.39896 3.39895L1.39912 11.3988L1.39897 11.3989L1.39896 11.399C1.31746 11.4804 1.25598 11.5744 1.2145 11.6746C1.17294 11.7748 1.15 11.8847 1.15 12C1.15 12.1152 1.17294 12.2251 1.2145 12.3254C1.25567 12.4249 1.31656 12.5182 1.39716 12.5992" fill="black"/>
</svg>
