<svg width="24" height="24" viewBox="0 0 24 24" fill="none" xmlns="http://www.w3.org/2000/svg">
<path fill-rule="evenodd" clip-rule="evenodd" d="M12 24C18.6274 24 24 18.6274 24 12C24 5.37258 18.6274 0 12 0C5.37258 0 0 5.37258 0 12C0 18.6274 5.37258 24 12 24ZM4.73229 12.601C4.6508 12.5195 4.58931 12.4256 4.54783 12.3254C4.50627 12.2251 4.48333 12.1153 4.48333 12C4.48333 11.8847 4.50627 11.7749 4.54783 11.6746C4.58931 11.5744 4.6508 11.4805 4.73229 11.399L4.73239 11.3989L4.73248 11.3988L10.0656 6.06563C10.3976 5.73368 10.9358 5.73368 11.2677 6.06563C11.5997 6.39757 11.5997 6.93576 11.2677 7.26771L7.38541 11.15H18.6667C19.1361 11.15 19.5167 11.5306 19.5167 12C19.5167 12.4694 19.1361 12.85 18.6667 12.85H7.38541L11.2677 16.7323C11.5997 17.0642 11.5997 17.6024 11.2677 17.9344C10.9358 18.2663 10.3976 18.2663 10.0656 17.9344L4.73229 12.601Z" fill="black"/>
</svg>
