<svg width="24" height="24" viewBox="0 0 24 24" fill="none" xmlns="http://www.w3.org/2000/svg">
<path fill-rule="evenodd" clip-rule="evenodd" d="M2.8 0C1.2536 0 0 1.2536 0 2.8V21.2C0 22.7464 1.2536 24 2.8 24H21.2C22.7464 24 24 22.7464 24 21.2V2.8C24 1.2536 22.7464 0 21.2 0H2.8ZM19.2677 12.601C19.3492 12.5195 19.4107 12.4256 19.4522 12.3254C19.4937 12.2251 19.5167 12.1153 19.5167 12C19.5167 11.8847 19.4937 11.7749 19.4522 11.6746C19.4107 11.5744 19.3492 11.4805 19.2677 11.399L19.2676 11.3988L13.9344 6.06563C13.6024 5.73368 13.0642 5.73368 12.7323 6.06563C12.4003 6.39757 12.4003 6.93576 12.7323 7.26771L16.6146 11.15H5.33333C4.86389 11.15 4.48333 11.5306 4.48333 12C4.48333 12.4694 4.86389 12.85 5.33333 12.85H16.6146L12.7323 16.7323C12.4003 17.0642 12.4003 17.6024 12.7323 17.9344C13.0642 18.2663 13.6024 18.2663 13.9344 17.9344L19.2677 12.601Z" fill="black"/>
</svg>
