<svg width="24" height="24" viewBox="0 0 24 24" fill="none" xmlns="http://www.w3.org/2000/svg">
<rect x="0.7" y="0.7" width="22.6" height="22.6" rx="2.1" fill="black" fill-opacity="0.25" stroke="black" stroke-width="1.4"/>
<path fill-rule="evenodd" clip-rule="evenodd" d="M4.54783 12.3254C4.58931 12.4256 4.65079 12.5196 4.73229 12.6011L10.0656 17.9344C10.3976 18.2663 10.9358 18.2663 11.2677 17.9344C11.5996 17.6024 11.5996 17.0643 11.2677 16.7323L7.38541 12.85H18.6667C19.1361 12.85 19.5167 12.4695 19.5167 12C19.5167 11.5306 19.1361 11.15 18.6667 11.15H7.38541L11.2677 7.26772C11.5996 6.93578 11.5996 6.39759 11.2677 6.06564C10.9358 5.73369 10.3976 5.73369 10.0656 6.06564L4.73245 11.3988L4.73229 11.399C4.65079 11.4805 4.58931 11.5744 4.54783 11.6746C4.50627 11.7749 4.48333 11.8848 4.48333 12C4.48333 12.1153 4.50627 12.2252 4.54783 12.3254Z" fill="black"/>
</svg>
