<svg width="24" height="24" viewBox="0 0 24 24" fill="none" xmlns="http://www.w3.org/2000/svg">
<rect x="0.7" y="0.7" width="22.6" height="22.6" rx="2.1" stroke="black" stroke-width="1.4"/>
<path fill-rule="evenodd" clip-rule="evenodd" d="M19.4522 12.3254C19.4107 12.4256 19.3492 12.5196 19.2677 12.6011L13.9344 17.9344C13.6024 18.2663 13.0642 18.2663 12.7323 17.9344C12.4003 17.6024 12.4003 17.0643 12.7323 16.7323L16.6146 12.85H5.33333C4.86389 12.85 4.48333 12.4695 4.48333 12C4.48333 11.5306 4.86389 11.15 5.33333 11.15H16.6146L12.7323 7.26772C12.4003 6.93578 12.4003 6.39759 12.7323 6.06564C13.0642 5.73369 13.6024 5.73369 13.9344 6.06564L19.2675 11.3988L19.2677 11.399C19.3492 11.4805 19.4107 11.5744 19.4522 11.6746C19.4937 11.7749 19.5167 11.8848 19.5167 12C19.5167 12.1153 19.4937 12.2252 19.4522 12.3254Z" fill="black"/>
</svg>
