<svg width="24" height="24" viewBox="0 0 24 24" fill="none" xmlns="http://www.w3.org/2000/svg">
<path fill-rule="evenodd" clip-rule="evenodd" d="M12 24C18.6274 24 24 18.6274 24 12C24 5.37258 18.6274 0 12 0C5.37258 0 0 5.37258 0 12C0 18.6274 5.37258 24 12 24ZM7.42681 6.20886C7.09486 5.87692 6.55667 5.87692 6.22472 6.20887C5.89278 6.54081 5.89278 7.079 6.22472 7.41095L10.8091 11.9954L6.22472 16.5798C5.89278 16.9117 5.89278 17.4499 6.22472 17.7818C6.55667 18.1138 7.09486 18.1138 7.42681 17.7818L12.0112 13.1974L16.5732 17.7594C16.9051 18.0914 17.4433 18.0914 17.7753 17.7594C18.1072 17.4275 18.1072 16.8893 17.7753 16.5573L13.2133 11.9954L17.7977 7.41095C18.1297 7.079 18.1297 6.54081 17.7977 6.20886C17.4658 5.87692 16.9276 5.87692 16.5956 6.20886L12.0112 10.7933L7.42681 6.20886Z" fill="black"/>
</svg>
