<svg width="24" height="24" viewBox="0 0 24 24" fill="none" xmlns="http://www.w3.org/2000/svg">
<path fill-rule="evenodd" clip-rule="evenodd" d="M24 12C24 18.6274 18.6274 24 12 24C5.37258 24 0 18.6274 0 12C0 5.37258 5.37258 0 12 0C18.6274 0 24 5.37258 24 12ZM6.06563 9.39896C6.39757 9.06701 6.93576 9.06701 7.26771 9.39896L12 14.1313L16.7323 9.39896C17.0642 9.06702 17.6024 9.06702 17.9344 9.39896C18.2663 9.73091 18.2663 10.2691 17.9344 10.601L12.601 15.9344C12.5595 15.9759 12.5148 16.0122 12.4677 16.0433C12.1378 16.2611 11.6894 16.2248 11.399 15.9344C11.3986 15.934 11.3982 15.9337 11.3979 15.9333L6.06563 10.601C5.73368 10.2691 5.73368 9.7309 6.06563 9.39896Z" fill="black"/>
</svg>
