<svg width="24" height="24" viewBox="0 0 24 24" fill="none" xmlns="http://www.w3.org/2000/svg">
<path fill-rule="evenodd" clip-rule="evenodd" d="M24 12C24 18.6274 18.6274 24 12 24C5.37258 24 0 18.6274 0 12C0 5.37258 5.37258 0 12 0C18.6274 0 24 5.37258 24 12ZM8.06563 12.601C7.73368 12.2691 7.73368 11.7309 8.06563 11.399L13.399 6.06563C13.7309 5.73369 14.2691 5.73369 14.601 6.06563C14.933 6.39758 14.933 6.93577 14.601 7.26771L9.86875 12L14.601 16.7323C14.933 17.0642 14.933 17.6024 14.601 17.9344C14.2691 18.2663 13.7309 18.2663 13.399 17.9344L8.06563 12.601Z" fill="black"/>
</svg>
