<svg width="24" height="24" viewBox="0 0 24 24" fill="none" xmlns="http://www.w3.org/2000/svg">
<path fill-rule="evenodd" clip-rule="evenodd" d="M0 2.8C0 1.2536 1.2536 0 2.8 0H21.2C22.7464 0 24 1.2536 24 2.8V21.2C24 22.7464 22.7464 24 21.2 24H2.8C1.2536 24 0 22.7464 0 21.2V2.8ZM8.06563 12.601C7.73368 12.2691 7.73368 11.7309 8.06563 11.399L13.399 6.06563C13.7309 5.73369 14.2691 5.73369 14.601 6.06563C14.933 6.39758 14.933 6.93577 14.601 7.26771L9.86875 12L14.601 16.7323C14.933 17.0642 14.933 17.6024 14.601 17.9344C14.2691 18.2663 13.7309 18.2663 13.399 17.9344L8.06563 12.601Z" fill="black"/>
</svg>
