<svg width="24" height="24" viewBox="0 0 24 24" fill="none" xmlns="http://www.w3.org/2000/svg">
<circle cx="12" cy="12" r="11.3" fill="black" fill-opacity="0.25" stroke="black" stroke-width="1.4"/>
<path d="M15.5 5L5 15.5V18.2959C5 18.5557 5.31417 18.6858 5.49791 18.5021L9.42504 14.575C9.88065 14.1193 10.6193 14.1193 11.075 14.575L15.5 19H18.2959C18.5557 19 18.6858 18.6858 18.5021 18.5021L12.825 12.825C12.3693 12.3693 12.3693 11.6307 12.825 11.175L18.5021 5.49791C18.6858 5.31417 18.5557 5 18.2959 5H15.5Z" fill="black"/>
<path d="M11.8792 5H6.16667C5.52233 5 5 5.52233 5 6.16667V11.8792C5 12.139 5.31417 12.2692 5.49791 12.0854L12.0854 5.49791C12.2692 5.31417 12.139 5 11.8792 5Z" fill="black"/>
<path d="M9.5429 17.3738L8.77023 18.1464C8.45524 18.4614 8.67833 19 9.12378 19H11.3762C11.8217 19 12.0448 18.4614 11.7298 18.1464L10.9571 17.3738C10.5666 16.9833 9.93342 16.9832 9.5429 17.3738Z" fill="#E73232"/>
</svg>
