<svg width="24" height="24" viewBox="0 0 24 24" fill="none" xmlns="http://www.w3.org/2000/svg">
<path fill-rule="evenodd" clip-rule="evenodd" d="M24 12C24 18.6274 18.6274 24 12 24C5.37258 24 0 18.6274 0 12C0 5.37258 5.37258 0 12 0C18.6274 0 24 5.37258 24 12ZM15.5 5L5 15.5V18.2959C5 18.5557 5.31417 18.6858 5.49791 18.5021L9.42504 14.575C9.88065 14.1193 10.6193 14.1193 11.075 14.575L15.5 19H18.2959C18.5557 19 18.6858 18.6858 18.5021 18.5021L12.825 12.825C12.3693 12.3693 12.3693 11.6307 12.825 11.175L18.5021 5.49791C18.6858 5.31417 18.5557 5 18.2959 5H15.5ZM11.8792 5H6.16667C5.52233 5 5 5.52233 5 6.16667V11.8792C5 12.139 5.31417 12.2692 5.49791 12.0854L12.0854 5.49791C12.2692 5.31417 12.139 5 11.8792 5ZM8.77022 18.1464L9.54289 17.3738C9.93342 16.9832 10.5666 16.9832 10.9571 17.3738L11.7298 18.1464C12.0448 18.4614 11.8217 19 11.3762 19H9.12377C8.67832 19 8.45524 18.4614 8.77022 18.1464Z" fill="black"/>
<path d="M9.54623 17.3771L8.77355 18.1498C8.45857 18.4648 8.68165 19.0033 9.1271 19.0033H11.3796C11.825 19.0033 12.0481 18.4648 11.7331 18.1498L10.9604 17.3771C10.5699 16.9866 9.93675 16.9866 9.54623 17.3771Z" fill="#E73232"/>
</svg>
