<svg width="24" height="24" viewBox="0 0 24 24" fill="none" xmlns="http://www.w3.org/2000/svg">
<rect x="0.7" y="0.7" width="22.6" height="22.6" rx="2.1" fill="black" fill-opacity="0.25" stroke="black" stroke-width="1.4"/>
<path d="M16 4L4 16V19.1953C4 19.4922 4.35905 19.641 4.56903 19.431L9.05719 14.9428C9.57789 14.4221 10.4221 14.4221 10.9428 14.9428L16 20H19.1953C19.4922 20 19.641 19.641 19.431 19.431L12.9428 12.9428C12.4221 12.4221 12.4221 11.5779 12.9428 11.0572L19.431 4.56904C19.641 4.35905 19.4922 4 19.1953 4H16Z" fill="black"/>
<path d="M11.8619 4H5.33333C4.59695 4 4 4.59695 4 5.33333V11.8619C4 12.1589 4.35905 12.3076 4.56904 12.0976L12.0976 4.56904C12.3076 4.35905 12.1589 4 11.8619 4Z" fill="black"/>
<path d="M9.2929 18.0404L8.18689 19.1464C7.87191 19.4614 8.09499 20 8.54044 20H11.4596C11.905 20 12.1281 19.4614 11.8131 19.1464L10.7071 18.0404C10.3166 17.6499 9.68342 17.6499 9.2929 18.0404Z" fill="#E73232"/>
</svg>
