<svg width="24" height="24" viewBox="0 0 24 24" fill="none" xmlns="http://www.w3.org/2000/svg">
<path fill-rule="evenodd" clip-rule="evenodd" d="M0 2.8C0 1.2536 1.2536 0 2.8 0H21.2C22.7464 0 24 1.2536 24 2.8V21.2C24 22.7464 22.7464 24 21.2 24H2.8C1.2536 24 0 22.7464 0 21.2V2.8ZM16 4L4 16V19.1953C4 19.4922 4.35905 19.641 4.56904 19.431L9.05719 14.9428C9.57789 14.4221 10.4221 14.4221 10.9428 14.9428L16 20H19.1953C19.4922 20 19.641 19.641 19.431 19.431L12.9428 12.9428C12.4221 12.4221 12.4221 11.5779 12.9428 11.0572L19.431 4.56904C19.641 4.35905 19.4922 4 19.1953 4H16ZM11.8619 4H5.33333C4.59695 4 4 4.59695 4 5.33333V11.8619C4 12.1589 4.35905 12.3076 4.56904 12.0976L12.0976 4.56904C12.3076 4.35905 12.1589 4 11.8619 4ZM8.18689 19.1464L9.29289 18.0404C9.68342 17.6499 10.3166 17.6499 10.7071 18.0404L11.8131 19.1464C12.1281 19.4614 11.905 20 11.4596 20H8.54044C8.09499 20 7.8719 19.4614 8.18689 19.1464Z" fill="black"/>
<path d="M9.29289 18.0404L8.18688 19.1464C7.8719 19.4614 8.09498 20 8.54044 20H11.4596C11.905 20 12.1281 19.4614 11.8131 19.1464L10.7071 18.0404C10.3166 17.6499 9.68341 17.6499 9.29289 18.0404Z" fill="#E73232"/>
</svg>
