<svg width="24" height="24" viewBox="0 0 24 24" fill="none" xmlns="http://www.w3.org/2000/svg">
<path fill-rule="evenodd" clip-rule="evenodd" d="M2.8 0C1.2536 0 0 1.2536 0 2.8V21.2C0 22.7464 1.2536 24 2.8 24H21.2C22.7464 24 24 22.7464 24 21.2V2.8C24 1.2536 22.7464 0 21.2 0H2.8ZM12.85 4.66667C12.85 4.19722 12.4694 3.81667 12 3.81667C11.5306 3.81667 11.15 4.19722 11.15 4.66667V11.15H4.66667C4.19722 11.15 3.81667 11.5306 3.81667 12C3.81667 12.4694 4.19722 12.85 4.66667 12.85H11.15V19.3333C11.15 19.8028 11.5306 20.1833 12 20.1833C12.4694 20.1833 12.85 19.8028 12.85 19.3333V12.85H19.3333C19.8028 12.85 20.1833 12.4694 20.1833 12C20.1833 11.5306 19.8028 11.15 19.3333 11.15H12.85V4.66667Z" fill="black"/>
</svg>
