<svg width="24" height="24" viewBox="0 0 24 24" fill="none" xmlns="http://www.w3.org/2000/svg">
<path fill-rule="evenodd" clip-rule="evenodd" d="M12 24C18.6274 24 24 18.6274 24 12C24 5.37258 18.6274 0 12 0C5.37258 0 0 5.37258 0 12C0 18.6274 5.37258 24 12 24ZM12.85 4.66667C12.85 4.19722 12.4694 3.81667 12 3.81667C11.5306 3.81667 11.15 4.19722 11.15 4.66667V11.15H4.66667C4.19722 11.15 3.81667 11.5306 3.81667 12C3.81667 12.4694 4.19722 12.85 4.66667 12.85H11.15V19.3333C11.15 19.8028 11.5306 20.1833 12 20.1833C12.4694 20.1833 12.85 19.8028 12.85 19.3333V12.85H19.3333C19.8028 12.85 20.1833 12.4694 20.1833 12C20.1833 11.5306 19.8028 11.15 19.3333 11.15H12.85V4.66667Z" fill="black"/>
</svg>
