<svg width="24" height="24" viewBox="0 0 24 24" fill="none" xmlns="http://www.w3.org/2000/svg">
<path fill-rule="evenodd" clip-rule="evenodd" d="M24 12C24 18.6274 18.6274 24 12 24C5.37258 24 0 18.6274 0 12C0 5.37258 5.37258 0 12 0C18.6274 0 24 5.37258 24 12ZM9.39896 6.06563C9.7309 5.73368 10.2691 5.73368 10.601 6.06563L15.9344 11.399C16.2663 11.7309 16.2663 12.2691 15.9344 12.601L10.601 17.9344C10.2691 18.2663 9.7309 18.2663 9.39896 17.9344C9.06701 17.6024 9.06701 17.0642 9.39896 16.7323L14.1313 12L9.39896 7.26771C9.06701 6.93576 9.06701 6.39757 9.39896 6.06563Z" fill="black"/>
</svg>
