<svg width="24" height="24" viewBox="0 0 24 24" fill="none" xmlns="http://www.w3.org/2000/svg">
<path fill-rule="evenodd" clip-rule="evenodd" d="M0 2.8C0 1.2536 1.2536 0 2.8 0H21.2C22.7464 0 24 1.2536 24 2.8V21.2C24 22.7464 22.7464 24 21.2 24H2.8C1.2536 24 0 22.7464 0 21.2V2.8ZM9.39896 6.06563C9.7309 5.73368 10.2691 5.73368 10.601 6.06563L15.9344 11.399C16.2663 11.7309 16.2663 12.2691 15.9344 12.601L10.601 17.9344C10.2691 18.2663 9.7309 18.2663 9.39896 17.9344C9.06701 17.6024 9.06701 17.0642 9.39896 16.7323L14.1313 12L9.39896 7.26771C9.06701 6.93576 9.06701 6.39757 9.39896 6.06563Z" fill="black"/>
</svg>
