<svg width="24" height="24" viewBox="0 0 24 24" fill="none" xmlns="http://www.w3.org/2000/svg">
<path fill-rule="evenodd" clip-rule="evenodd" d="M24 12C24 18.6274 18.6274 24 12 24C5.37258 24 0 18.6274 0 12C0 5.37258 5.37258 0 12 0C18.6274 0 24 5.37258 24 12ZM6.06563 14.601C5.73368 14.2691 5.73368 13.7309 6.06563 13.399L11.399 8.06563C11.7309 7.73368 12.2691 7.73368 12.601 8.06563M12 9.86875L16.7323 14.601C17.0642 14.933 17.6024 14.933 17.9344 14.601C18.2663 14.2691 18.2663 13.7309 17.9344 13.399L12.6021 8.06671M12 9.86875L7.26771 14.601C6.93576 14.933 6.39757 14.933 6.06563 14.601" fill="black"/>
</svg>
