<svg width="24" height="24" viewBox="0 0 24 24" fill="none" xmlns="http://www.w3.org/2000/svg">
<path fill-rule="evenodd" clip-rule="evenodd" d="M0 2.8C0 1.2536 1.2536 0 2.8 0H21.2C22.7464 0 24 1.2536 24 2.8V21.2C24 22.7464 22.7464 24 21.2 24H2.8C1.2536 24 0 22.7464 0 21.2V2.8ZM6.06563 14.601C5.73368 14.2691 5.73368 13.7309 6.06563 13.399L11.399 8.06563C11.7309 7.73368 12.2691 7.73368 12.601 8.06563M12 9.86875L16.7323 14.601C17.0642 14.933 17.6024 14.933 17.9344 14.601C18.2663 14.2691 18.2663 13.7309 17.9344 13.399L12.6021 8.06671M12 9.86875L7.26771 14.601C6.93576 14.933 6.39757 14.933 6.06563 14.601" fill="black"/>
</svg>
